Coordinates
version=1
nRows=32
nColumns=22
inDegrees=yes

Units are S.I. units (second, meters, Newtons, ...)
If the header above contains a line with 'inDegrees', this indicates whether rotational values are in degrees (yes) or radians (no).

endheader
time	pelvis_tilt	pelvis_list	pelvis_rotation	pelvis_tx	pelvis_ty	pelvis_tz	hip_flexion_r	hip_adduction_r	hip_rotation_r	knee_angle_r	ankle_angle_r	subtalar_angle_r	hip_flexion_l	hip_adduction_l	hip_rotation_l	knee_angle_l	ankle_angle_l	subtalar_angle_l	lumbar_extension	lumbar_bending	lumbar_rotation
      3.42000000	     -0.23349631	     -1.74417792	     80.53461025	      0.37460204	      0.91930370	      0.04212510	     26.07280608	     -3.78189449	      5.52052567	    -12.25315639	      2.13542158	     10.02790560	     -0.69085957	      7.72677051	      8.84240165	    -20.11250812	     16.45181134	     -8.99246421	     -7.01038907	     -7.22677285	    -12.80098903
      3.43000000	     -0.34442334	     -1.63440417	     80.92034187	      0.37752783	      0.91812796	      0.03451021	     25.63545635	     -3.72197218	      5.04569675	     -9.61166547	      1.90420987	     10.86261015	     -1.61216639	      7.64870867	      9.19399503	    -19.65642890	     16.76259310	     -8.92117190	     -7.07340080	     -7.39776622	    -12.88493879
      3.44000000	     -0.48288398	     -1.49737024	     81.29163110	      0.38046670	      0.91684759	      0.02677580	     25.22889796	     -3.67759796	      4.42024212	     -7.27091921	      1.72304547	     11.56305913	     -2.57610382	      7.59189745	      9.55218558	    -19.18172047	     17.07135495	     -8.84159755	     -7.15472046	     -7.60306405	    -12.98994443
      3.45000000	     -0.64458800	     -1.35391507	     81.64990425	      0.38339917	      0.91544339	      0.01894447	     24.90079297	     -3.63720124	      3.65806656	     -5.30778230	      1.62911050	     12.07136900	     -3.54720845	      7.55267257	      9.92093602	    -18.71187212	     17.37065906	     -8.75736201	     -7.23313985	     -7.82876750	    -13.11463592
      3.46000000	     -0.82273442	     -1.22472498	     82.00779701	      0.38630201	      0.91390865	      0.01103818	     24.69031134	     -3.59588708	      2.77764843	     -3.78617806	      1.62886193	     12.37803599	     -4.48483630	      7.52523301	     10.31476740	    -18.28368562	     17.66087339	     -8.67169272	     -7.29066054	     -8.06625394	    -13.25069469
      3.47000000	     -1.00034918	     -1.09446983	     82.35275557	      0.38920027	      0.91230315	      0.00302750	     24.58129239	     -3.53804699	      1.84237915	     -2.73702545	      1.72047586	     12.53361417	     -5.42116386	      7.49092253	     10.69602579	    -17.87069790	     17.94373903	     -8.58686206	     -7.33967629	     -8.29333732	    -13.41444346
      3.48000000	     -1.20197186	     -1.04440641	     82.70843132	      0.39201199	      0.91050292	     -0.00503063	     24.68415571	     -3.49901219	      0.89839805	     -2.20746245	      1.88714308	     12.54389252	     -6.22636072	      7.47576825	     11.09047427	    -17.54255859	     18.23471276	     -8.50826632	     -7.29130796	     -8.52090955	    -13.63820787
      3.49000000	     -1.38226447	     -0.98364123	     83.04694547	      0.39479764	      0.90870353	     -0.01321462	     24.84931169	     -3.44449931	      0.01920862	     -2.12139060	      2.07407522	     12.43815270	     -7.03058854	      7.44351595	     11.46454057	    -17.25791661	     18.49198696	     -8.43490556	     -7.24843972	     -8.71220632	    -13.82741826
      3.50000000	     -1.56071681	     -0.96826705	     83.38205427	      0.39751686	      0.90682786	     -0.02152005	     25.12302036	     -3.40331871	     -0.70612052	     -2.44075776	      2.23115492	     12.22862588	     -7.75718053	      7.41073191	     11.81812849	    -17.04162334	     18.73039485	     -8.36703019	     -7.14159841	     -8.87669007	    -14.03354858
      3.51000000	     -1.73902358	     -0.97699499	     83.72755101	      0.40016085	      0.90493434	     -0.02991245	     25.45773192	     -3.38740750	     -1.22405048	     -3.09933943	      2.30335122	     11.73630094	     -8.40727865	      7.38119935	     12.13750109	    -16.92837754	     18.93083328	     -8.29784960	     -7.00672669	     -9.01912297	    -14.28861416
      3.52000000	     -1.90050618	     -1.07230893	     84.06340841	      0.40278650	      0.90295429	     -0.03847161	     25.88491050	     -3.36270727	     -1.49457284	     -4.01099562	      2.25628742	     11.23423362	     -8.94705067	      7.33014582	     12.43398703	    -16.86931432	     19.11283392	     -8.22791613	     -6.74731185	     -9.11790378	    -14.53667895
      3.53000000	     -2.02688811	     -1.22577946	     84.38771099	      0.40542379	      0.90098050	     -0.04718144	     26.34751760	     -3.30423440	     -1.51360057	     -5.08968757	      1.99996446	     10.63332262	     -9.40718782	      7.24000781	     12.70130993	    -16.86379029	     19.25427176	     -8.15603983	     -6.40184018	     -9.15932596	    -14.77826105
      3.54000000	     -2.09730998	     -1.43624295	     84.68994681	      0.40812949	      0.89906571	     -0.05601247	     26.83083375	     -3.17686010	     -1.30014525	     -6.26500272	      1.45212526	      9.90335271	     -9.78064839	      7.08899857	     12.92242398	    -16.92542136	     19.34028296	     -8.08437813	     -5.97626928	     -9.13033383	    -14.97991690
      3.55000000	     -2.10730412	     -1.66690747	     84.96118201	      0.41091103	      0.89729373	     -0.06493787	     27.33052479	     -2.97383819	     -0.96596626	     -7.55431135	      0.70443906	      9.02806746	    -10.09539359	      6.87707304	     13.06162519	    -17.06761711	     19.37958697	     -8.00315526	     -5.51703474	     -9.02907345	    -15.12898337
      3.56000000	     -2.03479568	     -1.94227592	     85.20470262	      0.41378098	      0.89571109	     -0.07402026	     27.84570907	     -2.67300860	     -0.57835021	     -8.88060509	     -0.28078326	      8.05793430	    -10.36739092	      6.57547364	     13.19881738	    -17.21886442	     19.32326494	     -7.91524342	     -4.98244957	     -8.82758917	    -15.24119852
      3.57000000	     -1.88279062	     -2.23312303	     85.39935316	      0.41676250	      0.89438744	     -0.08325287	     28.38287614	     -2.27890024	     -0.23249636	    -10.28080022	     -1.37656073	      6.98705960	    -10.62239503	      6.19521960	     13.31195808	    -17.38181497	     19.15321032	     -7.80455544	     -4.40363524	     -8.53277070	    -15.28730248
      3.58000000	     -1.65772713	     -2.50957473	     85.52676850	      0.41988141	      0.89339007	     -0.09265694	     28.92960807	     -1.80346684	     -0.00945683	    -11.77718687	     -2.45715072	      5.89408312	    -10.89772910	      5.74916192	     13.39029371	    -17.54377761	     18.85705445	     -7.66030844	     -3.81094486	     -8.15744218	    -15.24842863
      3.59000000	     -1.37425774	     -2.74589811	     85.58016119	      0.42310976	      0.89275798	     -0.10226894	     29.45924351	     -1.27600477	      0.04721716	    -13.36861946	     -3.37469812	      4.87361643	    -11.22865271	      5.26025559	     13.43991487	    -17.69211173	     18.40931846	     -7.46226939	     -3.23167671	     -7.71149613	    -15.11977779
      3.60000000	     -1.04056859	     -2.91803367	     85.56529157	      0.42642258	      0.89252584	     -0.11210689	     29.92424512	     -0.71825302	     -0.05244124	    -15.01994030	     -4.05376937	      4.07036836	    -11.63635177	      4.74178512	     13.45869123	    -17.83376127	     17.79752676	     -7.20454036	     -2.69167532	     -7.20421816	    -14.91542106
      3.61000000	     -0.66838601	     -3.01894964	     85.50465769	      0.42975342	      0.89268383	     -0.12212973	     30.28485518	     -0.15536327	     -0.27699419	    -16.67038244	     -4.42913273	      3.55418811	    -12.10600556	      4.20900717	     13.45320206	    -18.00129730	     17.01837977	     -6.86284816	     -2.21491201	     -6.64510341	    -14.66294266
      3.62000000	     -0.25419009	     -3.05703995	     85.43213169	      0.43303612	      0.89320640	     -0.13228403	     30.50201724	      0.41097391	     -0.55917971	    -18.23207264	     -4.52125147	      3.36485350	    -12.60187653	      3.65687119	     13.44045644	    -18.23592779	     16.08963478	     -6.44837258	     -1.80486011	     -6.02813228	    -14.39628457
      3.63000000	      0.19651662	     -3.04620531	     85.39048411	      0.43619439	      0.89405487	     -0.14249281	     30.55721073	      0.97166307	     -0.86504544	    -19.63865667	     -4.36801507	      3.42422613	    -13.07316318	      3.08611517	     13.44380749	    -18.58798862	     15.02570833	     -5.97477837	     -1.46163947	     -5.36030443	    -14.16409012
      3.64000000	      0.67299472	     -3.00191066	     85.41264238	      0.43916958	      0.89518259	     -0.15267294	     30.45364536	      1.51724785	     -1.17927503	    -20.85315127	     -4.03244222	      3.59458278	    -13.47015096	      2.50104811	     13.47588343	    -19.09894322	     13.83208109	     -5.45624197	     -1.18112850	     -4.65511925	    -14.00704803
      3.65000000	      1.15804664	     -2.94252434	     85.53600939	      0.44187805	      0.89653986	     -0.16274127	     30.19865640	      2.02283106	     -1.52584639	    -21.83495560	     -3.57630175	      3.75613349	    -13.72724864	      1.91630233	     13.56902571	    -19.83192387	     12.50264743	     -4.92054529	     -0.95245880	     -3.93598829	    -13.92083100
      3.66000000	      1.63756238	     -2.87330261	     85.75823784	      0.44432827	      0.89807164	     -0.17268931	     29.82613626	      2.48279333	     -1.91233876	    -22.62607596	     -3.06535448	      3.84082882	    -13.85816347	      1.33523675	     13.70461251	    -20.73181251	     11.04106876	     -4.30003803	     -0.76170676	     -3.21812294	    -13.96430567
      3.67000000	      2.07168909	     -2.79472704	     86.13221671	      0.44638013	      0.89974148	     -0.18238541	     29.34050876	      2.82742742	     -2.40147091	    -23.20755194	     -2.51592229	      3.82958074	    -13.77941559	      0.80379932	     13.92669384	    -21.91939611	      9.47168385	     -3.77140082	     -0.62676331	     -2.55234237	    -14.13746728
      3.68000000	      2.46069707	     -2.69902878	     86.57769029	      0.44822125	      0.90152834	     -0.19187735	     28.74141610	      3.11475649	     -2.88346851	    -23.59091121	     -1.94746379	      3.66578168	    -13.55929939	      0.31805807	     14.14388239	    -23.28202898	      7.71791653	     -3.05092605	     -0.53592951	     -1.94455661	    -14.36422808
      3.69000000	      2.77548945	     -2.59298257	     87.14347467	      0.44972437	      0.90337811	     -0.20109172	     28.07374644	      3.27094985	     -3.50694782	    -23.83489908	     -1.39105094	      3.45511679	    -13.14833682	     -0.09092449	     14.40936850	    -24.87581235	      5.85767845	     -2.49090102	     -0.49041826	     -1.42753380	    -14.68365757
      3.70000000	      3.01899367	     -2.46514690	     87.74896095	      0.45108643	      0.90528741	     -0.21004601	     27.32446716	      3.35420722	     -4.15719075	    -23.93779770	     -0.81199656	      3.13107705	    -12.59475401	     -0.42817435	     14.61615561	    -26.63637075	      3.82250226	     -1.83236403	     -0.49357080	     -1.00753792	    -14.98420102
      3.71000000	      3.18478975	     -2.31415288	     88.43830440	      0.45221935	      0.90723717	     -0.21865544	     26.50504729	      3.33324289	     -4.87924025	    -23.91850579	     -0.27016187	      2.87598445	    -11.86848847	     -0.68899825	     14.81197832	    -28.60509803	      1.70587132	     -1.39492111	     -0.56266510	     -0.68803405	    -15.35512991
      3.72000000	      3.29157074	     -2.15201261	     89.11549712	      0.45332341	      0.90916432	     -0.22694188	     25.64952065	      3.27704686	     -5.58734854	    -23.81459118	      0.31042120	      2.54478551	    -10.98969559	     -0.89969284	     14.84697800	    -30.73371895	     -0.54404446	     -0.87073691	     -0.67767818	     -0.44866958	    -15.63445653
      3.73000000	      3.36218454	     -1.97230653	     89.83640547	      0.45429541	      0.91106869	     -0.23485024	     24.75753562	      3.17889932	     -6.33929459	    -23.63562238	      0.82030590	      2.34221909	     -9.94602953	     -1.08981052	     14.79334105	    -33.04277224	     -2.83618909	     -0.56905725	     -0.85790359	     -0.25630653	    -15.92227024
